<?xml version="1.0" encoding="UTF-8" standalone="no"?>
<!-- Created with Inkscape (http://www.inkscape.org/) -->

<svg
   width="34.637035mm"
   height="5.6671872mm"
   viewBox="0 0 34.637035 5.6671873"
   version="1.1"
   id="svg5"
   inkscape:version="1.2.2 (732a01da63, 2022-12-09, custom)"
   sodipodi:docname="logo-temp"
   xmlns:inkscape="http://www.inkscape.org/namespaces/inkscape"
   xmlns:sodipodi="http://sodipodi.sourceforge.net/DTD/sodipodi-0.dtd"
   xmlns="http://www.w3.org/2000/svg"
   xmlns:svg="http://www.w3.org/2000/svg">
  <sodipodi:namedview
     id="namedview7"
     pagecolor="#ffffff"
     bordercolor="#000000"
     borderopacity="0.25"
     inkscape:showpageshadow="2"
     inkscape:pageopacity="0.0"
     inkscape:pagecheckerboard="0"
     inkscape:deskcolor="#d1d1d1"
     inkscape:document-units="mm"
     showgrid="false"
     inkscape:zoom="1.6961841"
     inkscape:cx="379.08622"
     inkscape:cy="257.63713"
     inkscape:window-width="1366"
     inkscape:window-height="731"
     inkscape:window-x="0"
     inkscape:window-y="0"
     inkscape:window-maximized="1"
     inkscape:current-layer="layer1" />
  <defs
     id="defs2">
    <rect
       x="114.98236"
       y="169.63629"
       width="330.71478"
       height="161.22588"
       id="rect236-9" />
  </defs>
  <g
     inkscape:label="Camada 1"
     inkscape:groupmode="layer"
     id="layer1"
     transform="translate(-56.682478,-45.991904)">
    <g
       aria-label="SomeMaid"
       transform="scale(0.26458333)"
       id="text234-1"
       style="font-size:26.6667px;text-align:center;white-space:pre;shape-inside:url(#rect236-9);display:inline;fill:#f2ab6d;stroke-width:1.88976">
      <path
         d="m 220.83456,184.20528 q -2.21354,-0.74219 -3.59375,-2.10937 -1.36719,-1.38021 -1.36719,-3.41147 0,-1.99219 1.41927,-3.42448 1.43229,-1.43229 3.46355,-1.43229 2.00521,0 3.4375,1.41927 0.80729,0.78125 1.35417,2.48698 l -2.44792,0.96354 q -0.44271,-1.19791 -0.80729,-1.5625 -0.63803,-0.625 -1.53646,-0.625 -0.91146,0 -1.54949,0.63802 -0.63802,0.625 -0.63802,1.53646 0,0.91146 0.63802,1.54948 0.71615,0.70313 1.97917,1.28907 2.44792,0.79427 4.15365,2.5 1.91407,1.88802 1.91407,4.58334 0,2.69532 -1.91407,4.60938 -1.90104,1.90105 -4.58333,1.90105 -2.69532,0 -4.59636,-1.91407 -1.52344,-1.52344 -1.92709,-4.20573 l 2.61719,-0.95053 q 0.2474,2.30469 1.21094,3.26824 1.11979,1.11979 2.69532,1.11979 1.57552,0 2.69531,-1.11979 1.11979,-1.1198 1.11979,-2.70834 0,-1.57552 -1.11979,-2.69532 -1.06771,-1.06771 -2.61719,-1.70573 z"
         style="font-weight:bold;font-family:'Caviar Dreams';-inkscape-font-specification:'Caviar Dreams Bold'"
         id="path4945" />
      <path
         d="m 236.49864,180.4032 q 3.07292,0 5.23438,2.17448 2.17449,2.17448 2.17449,5.2474 0,3.07292 -2.17449,5.2474 -2.16146,2.17448 -5.23438,2.17448 -3.0599,0 -5.23438,-2.17448 -2.17448,-2.17448 -2.17448,-5.2474 0,-3.07292 2.17448,-5.2474 2.17448,-2.17448 5.23438,-2.17448 z m 0,2.77344 q -1.92708,0 -3.29427,1.36719 -1.35417,1.36718 -1.35417,3.28125 0,1.92709 1.35417,3.28125 1.36719,1.35417 3.29427,1.35417 1.92709,0 3.28126,-1.35417 1.36719,-1.35416 1.36719,-3.28125 0,-1.91407 -1.36719,-3.28125 -1.35417,-1.36719 -3.28126,-1.36719 z"
         style="font-weight:bold;font-family:'Caviar Dreams';-inkscape-font-specification:'Caviar Dreams Bold'"
         id="path4947" />
      <path
         d="m 247.03251,181.49695 h 2.69532 v 1.25 q 0.78125,-1.96615 3.00781,-1.96615 2.21355,0 2.48699,2.23959 0.63802,-2.23959 3.51562,-2.23959 2.83855,0 2.83855,3.45052 v 10.66408 h -2.70834 v -9.42709 q 0,-1.97917 -1.60156,-1.97917 -0.66406,0 -1.14584,0.46875 -0.48177,0.46875 -0.48177,3.15104 v 7.78647 h -2.69531 l 0.013,-9.42709 q 0,-1.97917 -1.61459,-1.97917 -0.66406,0 -1.14583,0.46875 -0.41667,0.40364 -0.46875,2.13542 v 8.80209 h -2.69532 z"
         style="font-weight:bold;font-family:'Caviar Dreams';-inkscape-font-specification:'Caviar Dreams Bold'"
         id="path4949" />
      <path
         d="m 269.66275,191.86154 q 0.67708,0.59896 2.46094,0.59896 1.92709,0 3.29427,-1.35417 0.16928,-0.18229 0.69011,-0.80729 l 2.69532,0.96354 q -0.98959,1.36719 -1.4323,1.8099 -2.17448,2.17448 -5.2474,2.17448 -3.0599,0 -5.23438,-2.17448 -2.17448,-2.17448 -2.17448,-5.2474 0,-3.07292 2.17448,-5.2474 2.17448,-2.17448 5.23438,-2.17448 2.63021,0 4.60938,1.58854 0.32552,0.27344 0.63802,0.58594 0.13021,0.13021 0.74219,0.82031 l -1.35417,1.36719 z m 4.50521,-8.33334 q -0.45573,-0.35156 -2.04427,-0.35156 -1.91407,0 -3.28125,1.36719 -1.35417,1.35416 -1.35417,3.28125 0,1.57552 0.35156,2.04427 z"
         style="font-weight:bold;font-family:'Caviar Dreams';-inkscape-font-specification:'Caviar Dreams Bold'"
         id="path4951" />
      <path
         d="m 285.02735,174.06204 6.75782,11.6797 6.73178,-11.6797 h 2.46094 v 20.83336 h -2.69532 v -15.0521 l -6.4974,11.25001 -6.52345,-11.25001 v 15.0521 h -2.69531 v -20.83336 z"
         style="font-weight:bold;font-family:'Caviar Dreams';-inkscape-font-specification:'Caviar Dreams Bold'"
         id="path4953" />
      <path
         d="m 317.13676,188.82768 v -1.97916 q -0.23437,-1.26303 -1.25,-2.29167 -1.36719,-1.35417 -3.28125,-1.35417 -1.92709,0 -3.29428,1.35417 -1.35417,1.35416 -1.35417,3.28125 0,1.91407 1.35417,3.28125 1.36719,1.35417 3.29428,1.35417 1.91406,0 3.28125,-1.35417 1.01563,-1.02864 1.25,-2.29167 z m 0,-6.39323 v -0.9375 h 2.70834 v 13.41147 h -2.70834 v -1.67969 q -1.95312,2.01823 -4.53125,2.01823 -3.07292,0 -5.2474,-2.16146 -2.16147,-2.17448 -2.16147,-5.2474 0,-3.07292 2.16147,-5.23438 2.17448,-2.17448 5.2474,-2.17448 2.57813,0 4.53125,2.00521 z"
         style="font-weight:bold;font-family:'Caviar Dreams';-inkscape-font-specification:'Caviar Dreams Bold'"
         id="path4955" />
      <path
         d="m 326.68105,181.49695 v 13.39845 h -2.69532 v -13.39845 z m -1.35417,-5.50782 q 0.78125,0 1.34115,0.54687 0.55989,0.54688 0.55989,1.34115 0,0.79427 -0.55989,1.34115 -0.5599,0.54687 -1.34115,0.54687 -0.76823,0 -1.32813,-0.54687 -0.5599,-0.54688 -0.5599,-1.34115 0,-0.79427 0.5599,-1.34115 0.5599,-0.54687 1.32813,-0.54687 z"
         style="font-weight:bold;font-family:'Caviar Dreams';-inkscape-font-specification:'Caviar Dreams Bold'"
         id="path4957" />
      <path
         d="m 342.43628,188.82768 v -1.99219 q -0.23438,-1.26302 -1.26303,-2.29166 -1.35417,-1.36719 -3.28125,-1.36719 -1.92709,0 -3.29428,1.36719 -1.35416,1.36718 -1.35416,3.28125 0,1.92709 1.35416,3.28125 1.36719,1.35417 3.29428,1.35417 1.92708,0 3.28125,-1.35417 1.02865,-1.02864 1.26303,-2.27865 z m 0,-6.40625 v -8.35939 h 2.70833 v 20.83336 h -2.70833 v -1.66667 q -1.95313,2.01823 -4.54428,2.01823 -3.07292,0 -5.2474,-2.17448 -2.16146,-2.17448 -2.16146,-5.2474 0,-3.07292 2.16146,-5.2474 2.17448,-2.17448 5.2474,-2.17448 2.59115,0 4.54428,2.01823 z"
         style="font-weight:bold;font-family:'Caviar Dreams';-inkscape-font-specification:'Caviar Dreams Bold'"
         id="path4959" />
    </g>
  </g>
</svg>
